<svg width="80" height="42" viewBox="0 0 80 42" fill="none" xmlns="http://www.w3.org/2000/svg">
<g clip-path="url(#clip0_834_517)">
<path d="M66.0807 36.1236C61.4429 36.1236 57.6687 32.3495 57.6687 27.7117C57.6687 23.0739 61.4429 19.2997 66.0807 19.2997C70.7185 19.2997 74.4926 23.0739 74.4926 27.7117C74.4926 32.3495 70.7185 36.1236 66.0807 36.1236ZM53.7737 22.9587C53.7132 22.8724 53.6556 22.7831 53.5837 22.7025C53.4743 22.5816 53.3821 22.452 53.2843 22.3254C53.2641 22.2995 53.2439 22.2736 53.2238 22.2476C52.8006 21.6575 52.5214 20.9953 52.4206 20.3015C52.3832 20.054 52.3688 19.8553 52.3688 19.6768C52.3688 18.2288 53.077 17.1838 53.67 16.5648C54.1191 16.0956 54.3465 15.4536 54.3206 14.8058C54.3005 14.328 54.1335 13.8645 53.8543 13.4816C52.5502 11.619 50.653 10.0759 48.4075 8.97333C48.658 8.33135 49.1445 7.78437 49.8153 7.413C50.6991 6.92359 51.77 6.79117 52.8352 7.03587C53.4224 7.17117 53.9637 7.413 54.4387 7.75558C54.5135 7.81028 54.5941 7.85922 54.6719 7.9024L63.7085 14.7281C59.1542 15.5601 55.4088 18.7355 53.7737 22.9558V22.9587ZM47.5842 19.6567C46.1159 16.9535 43.2544 15.1139 39.9696 15.1139C36.6849 15.1139 33.9385 16.8844 32.4472 19.5012C32.4156 17.9179 31.9722 16.3777 31.1604 15.0102C32.8704 13.3952 35.4211 12.2926 38.3287 11.9616C38.3488 11.9616 38.3661 11.9587 38.3863 11.9558C38.6281 11.9299 38.8728 11.9126 39.1636 11.8953L39.2528 11.8896C39.7681 11.8637 40.2777 11.8637 40.8016 11.8896L40.9254 11.8982C41.1701 11.9126 41.4148 11.9299 41.6566 11.9558C41.6681 11.9558 41.6797 11.9558 41.6912 11.9587C44.5844 12.2725 47.1552 13.3808 48.8796 15.0102C48.0419 16.4238 47.5899 18.0158 47.587 19.6538L47.5842 19.6567ZM39.9668 27.6483C37.8307 27.6483 36.0947 25.9095 36.0947 23.7734C36.0947 21.6373 37.8335 19.9014 39.9668 19.9014C42.1 19.9014 43.8388 21.6402 43.8388 23.7734C43.8388 25.9066 42.1 27.6483 39.9668 27.6483ZM16.2912 14.7281L25.3221 7.90528C25.4027 7.85922 25.4833 7.81028 25.5611 7.75558C26.0361 7.41588 26.5773 7.17405 27.1646 7.03587C28.2297 6.79117 29.3007 6.92359 30.1845 7.413C30.861 7.78725 31.3533 8.33998 31.6009 8.98772C29.3985 10.073 27.5388 11.5758 26.2433 13.3923C25.9152 13.7925 25.7223 14.2905 25.7021 14.8174C25.6762 15.4651 25.9152 16.0984 26.3642 16.5677C26.9573 17.1895 27.6655 18.2317 27.6655 19.6797C27.6655 19.8582 27.6482 20.0568 27.6108 20.3015C27.4899 21.1249 27.3171 21.5798 26.9141 22.0864C26.845 22.1613 26.7759 22.2332 26.7183 22.3167C26.7068 22.3311 26.6982 22.3426 26.6838 22.357C26.5024 22.5557 26.3585 22.7831 26.2549 23.0249C24.6341 18.77 20.8743 15.563 16.2941 14.7281H16.2912ZM13.919 36.1236C9.28123 36.1236 5.50708 32.3495 5.50708 27.7117C5.50708 23.0739 9.28123 19.2997 13.919 19.2997C18.5568 19.2997 22.331 23.0739 22.331 27.7117C22.331 32.3495 18.5568 36.1236 13.919 36.1236ZM73.6088 16.2107L57.2974 3.88642C57.1764 3.79718 57.0526 3.71945 56.9202 3.65324C56.0998 3.11489 55.1987 2.72049 54.24 2.46428C54.1767 2.37503 54.1191 2.28579 54.0414 2.2023C53.1058 1.19759 51.888 0.50091 50.5177 0.184238C48.8364 -0.204405 47.1063 0.0287806 45.6438 0.837734C44.0979 1.69275 43.0356 3.08035 42.6527 4.74431C42.4598 5.5763 42.4598 6.43131 42.6326 7.25754C42.5001 7.24027 42.3706 7.22011 42.2382 7.20572C42.2094 7.20284 42.1748 7.19708 42.1403 7.19421C41.8294 7.16254 41.5127 7.13663 41.1672 7.11648L41.0262 7.10784C40.3669 7.07329 39.6702 7.07329 39.0196 7.10784L38.8411 7.11648C38.5245 7.13375 38.2078 7.15966 37.8969 7.19133C37.8825 7.19133 37.871 7.19133 37.8594 7.19421C37.6953 7.21148 37.5341 7.23739 37.37 7.25754C37.5428 6.42843 37.5428 5.57342 37.3499 4.73856C36.967 3.07459 35.9047 1.68699 34.3588 0.831976C32.8963 0.0230229 31.1661 -0.210163 29.4849 0.17848C28.1146 0.495152 26.8968 1.19183 25.9612 2.19654C25.8864 2.27715 25.8259 2.36927 25.7626 2.45852C24.8068 2.71474 23.9086 3.10626 23.091 3.64172C22.9557 3.70793 22.8262 3.78566 22.7052 3.88066L6.39376 16.2107C1.47095 19.458 -0.90985 24.9854 0.319413 30.317C1.12549 33.8119 3.26446 37.0046 6.18936 39.0831C8.5241 40.7413 11.1957 41.5992 13.9306 41.5992C14.9266 41.5992 15.9342 41.484 16.9332 41.2537C22.8693 39.8834 27.3344 34.4136 28.5925 29.8794L30.0232 26.5918C30.5587 26.396 31.1604 26.3471 31.7275 26.4479C32.856 29.9197 36.1177 32.4387 39.961 32.4387C43.8042 32.4387 47.0573 29.9255 48.1916 26.4594C48.7731 26.3385 49.4007 26.3759 49.9592 26.5688L51.4015 29.8794C52.6595 34.4136 57.1246 39.8834 63.0608 41.2537C64.0626 41.484 65.0673 41.5992 66.0634 41.5992C68.7954 41.5992 71.4699 40.7413 73.8046 39.0831C76.7295 37.0074 78.8685 33.8119 79.6745 30.3199C80.9067 24.9883 78.523 19.4609 73.6031 16.2136L73.6088 16.2107Z" fill="white"/>
</g>
<defs>
<clipPath id="clip0_834_517">
<rect width="80" height="41.5963" fill="white"/>
</clipPath>
</defs>
</svg>
