<svg width="54" height="54" viewBox="0 0 54 54" fill="none" xmlns="http://www.w3.org/2000/svg">
<mask id="mask0_531_508" style="mask-type:alpha" maskUnits="userSpaceOnUse" x="0" y="0" width="54" height="54">
<rect width="54" height="54" fill="#D9D9D9"/>
</mask>
<g mask="url(#mask0_531_508)">
<path d="M40.5 29.25V24.75H49.5V29.25H40.5ZM43.2 45L36 39.6L38.7 36L45.9 41.4L43.2 45ZM38.7 18L36 14.4L43.2 9L45.9 12.6L38.7 18ZM11.25 42.75V33.75H9C7.7625 33.75 6.70313 33.3094 5.82188 32.4281C4.94063 31.5469 4.5 30.4875 4.5 29.25V24.75C4.5 23.5125 4.94063 22.4531 5.82188 21.5719C6.70313 20.6906 7.7625 20.25 9 20.25H18L29.25 13.5V40.5L18 33.75H15.75V42.75H11.25ZM31.5 34.5375V19.4625C32.5125 20.3625 33.3281 21.4594 33.9469 22.7531C34.5656 24.0469 34.875 25.4625 34.875 27C34.875 28.5375 34.5656 29.9531 33.9469 31.2469C33.3281 32.5406 32.5125 33.6375 31.5 34.5375Z" fill="#3D3D3B"/>
</g>
</svg>
