<svg width="80" height="80" viewBox="0 0 80 80" fill="none" xmlns="http://www.w3.org/2000/svg">
<g clip-path="url(#clip0_834_509)">
<path d="M60.5391 74.2284H45.7247V54.9412C47.0131 54.6148 48.2493 54.073 49.4196 53.3403C51.9026 57.2679 55.9413 59.987 60.5391 60.8031V74.2284ZM42.8389 22.4126C41.245 22.4126 39.9531 23.7045 39.9531 25.2984V48.8293C34.9594 46.3533 31.1499 37.6577 31.1499 27.6529C31.1499 15.7937 36.5048 5.77159 42.8389 5.77159C49.1731 5.77159 54.5314 15.7903 54.5314 27.6529C54.5314 37.6577 50.7219 46.3533 45.7282 48.8293V25.2984C45.7282 23.7045 44.4363 22.4126 42.8424 22.4126H42.8389ZM39.9531 74.2284H25.3852V58.9695H39.9531V74.2284ZM77.1142 74.2284H66.3107V60.8065C74.0791 59.4314 80 52.6249 80 44.4502C80 40.3247 78.472 36.3797 75.746 33.3446C76.1245 32.1188 76.319 30.8478 76.319 29.549C76.319 26.0451 74.9334 22.7738 72.4712 20.3533C72.4469 15.377 68.3978 11.3348 63.4249 11.3348C61.831 11.3348 60.5391 12.6266 60.5391 14.2206C60.5391 15.8146 61.831 17.1064 63.4249 17.1064C65.2307 17.1064 66.6962 18.5823 66.6962 20.395C66.6962 20.5999 66.6754 20.8013 66.6337 21.0201C66.4288 22.0966 66.849 23.194 67.7172 23.8573C69.5125 25.2255 70.5439 27.2987 70.5439 29.5455C70.5439 30.6637 70.2869 31.7402 69.7764 32.7543C69.1826 33.935 69.4674 35.3692 70.4675 36.2339C72.8567 38.3001 74.2249 41.2901 74.2249 44.4468C74.2249 49.4196 70.8669 53.6111 66.3107 54.8821V46.0199C66.3107 44.4259 65.0189 43.1341 63.4249 43.1341C61.831 43.1341 60.5391 44.4259 60.5391 46.0199V54.8856C57.6325 54.0765 55.1669 52.0762 53.7883 49.3398C57.7818 44.3148 60.303 36.536 60.303 27.6529C60.303 12.1474 52.6319 0 42.8389 0C33.046 0 25.3748 12.1474 25.3748 27.6529C25.3748 39.3107 29.7087 49.0654 36.0221 53.1944H8.66432L14.9394 44.8392C15.5958 43.9641 15.7034 42.7938 15.2138 41.8145C14.7241 40.8352 13.724 40.217 12.6301 40.217H11.5432L18.5371 30.9033C19.1935 30.0282 19.3011 28.8579 18.8115 27.8786C18.3218 26.8993 17.3217 26.2812 16.2278 26.2812H15.8597L24.8018 14.3734C25.7568 13.0989 25.4998 11.2897 24.2254 10.3312C22.9509 9.37275 21.1416 9.62973 20.1832 10.9077L7.77185 27.4341C7.11551 28.3092 7.00786 29.4795 7.4975 30.4588C7.98715 31.4381 8.98728 32.0563 10.0812 32.0563H10.4493L3.45531 41.37C2.79898 42.2451 2.69132 43.4154 3.18097 44.3947C3.67062 45.374 4.67075 45.9921 5.76464 45.9921H6.85159L0.579937 54.3474C-0.0763988 55.2225 -0.184052 56.3928 0.305595 57.3721C0.795242 58.3514 1.79537 58.9695 2.88579 58.9695H19.6102V74.2284H2.88579C1.29184 74.2284 0 75.5203 0 77.1142C0 78.7082 1.29184 80 2.88579 80H77.1142C78.7082 80 80 78.7082 80 77.1142C80 75.5203 78.7082 74.2284 77.1142 74.2284Z" fill="white"/>
</g>
<defs>
<clipPath id="clip0_834_509">
<rect width="80" height="80" fill="white"/>
</clipPath>
</defs>
</svg>
