<svg width="80" height="73" viewBox="0 0 80 73" fill="none" xmlns="http://www.w3.org/2000/svg">
<g clip-path="url(#clip0_834_497)">
<path d="M50.0287 67.2884L30.061 32.1505H52.8934L72.8611 67.2884H50.0287ZM28.1061 67.2884V39.3059L44.0098 67.2884H28.1061ZM22.871 67.2884H7.11527L22.871 39.5609V67.2884ZM56.6867 28.2375C56.2208 27.419 55.352 26.9154 54.4107 26.9154H25.7231C25.701 26.9154 25.679 26.9217 25.657 26.9217C25.6223 26.9217 25.5909 26.9154 25.5562 26.9154C24.615 26.9154 23.7461 27.4222 23.2802 28.2375L0.343929 68.6106C-0.115678 69.4196 -0.11253 70.4144 0.356521 71.2202C0.825572 72.0261 1.68812 72.5204 2.61678 72.5204H77.3817C77.4006 72.5204 77.4163 72.5141 77.432 72.5141C77.5548 72.5109 77.6744 72.4983 77.7909 72.4763C77.8665 72.4637 77.9389 72.4511 78.0113 72.4322C78.0459 72.4228 78.0805 72.4102 78.1151 72.4007C79.1981 72.0796 79.9945 71.088 79.9945 69.9012C79.9945 69.3252 79.8025 68.7994 79.4877 68.3682L56.6804 28.2375H56.6867ZM63.817 6.08193C64.8652 5.53103 66.0489 5.23197 67.2892 5.23197C71.4099 5.23197 74.7657 8.58458 74.7657 12.7085C74.7657 16.8323 71.4099 20.1849 67.2892 20.1849C66.0331 20.1849 64.8212 19.867 63.7477 19.2846C65.9639 17.9121 67.4434 15.4567 67.4434 12.6612C67.4434 9.86582 65.9954 7.4639 63.817 6.08193ZM59.1013 15.1544C58.0908 14.9246 57.0393 15.3181 56.4223 16.1524C55.8053 16.9866 55.7423 18.1041 56.2555 19.0044C58.5189 22.9615 62.7466 25.4201 67.2892 25.4201C74.2966 25.4201 79.9976 19.719 79.9976 12.7116C79.9976 5.70417 74.2966 0 67.2892 0C62.8127 0 58.6196 2.40507 56.3405 6.27395C55.8148 7.16799 55.8651 8.28552 56.4695 9.12604C57.0739 9.9697 58.1159 10.3758 59.1296 10.1617C59.3059 10.1271 59.4822 10.1082 59.6585 10.1082C61.0656 10.1082 62.2115 11.2541 62.2115 12.6644C62.2115 14.251 60.7791 15.5291 59.0981 15.1544H59.1013Z" fill="white"/>
</g>
<defs>
<clipPath id="clip0_834_497">
<rect width="80" height="72.5204" fill="white"/>
</clipPath>
</defs>
</svg>
