<svg width="80" height="62" viewBox="0 0 80 62" fill="none" xmlns="http://www.w3.org/2000/svg">
<g clip-path="url(#clip0_834_521)">
<path d="M75.5763 51.5662H72.7952C72.7287 50.5602 72.5078 49.5968 72.1405 48.7053H75.5763V51.5662ZM68.2922 44.2821C66.9269 43.4784 65.3408 43.01 63.6455 43.01C61.9502 43.01 60.3641 43.4784 58.9988 44.2821H21.4313C20.066 43.4784 18.4798 43.01 16.7846 43.01C15.0893 43.01 13.5031 43.4784 12.1379 44.2821H7.0467L7.03872 36.5403H55.0068C55.044 36.5483 55.0813 36.5616 55.1186 36.5669L71.2889 39.0446C71.6375 39.1111 72.71 39.4624 73.0587 40.1677C73.3834 40.8224 73.4233 41.8097 73.4126 42.0892C73.4126 42.1264 73.41 42.1637 73.41 42.2036V44.2848H68.2895L68.2922 44.2821ZM63.6428 56.8862C61.0188 56.8862 58.887 54.7652 58.887 52.1597C58.887 49.5542 61.0214 47.4332 63.6428 47.4332C66.2643 47.4332 68.3987 49.5542 68.3987 52.1597C68.3987 54.7652 66.2643 56.8862 63.6428 56.8862ZM54.4931 51.5662H25.9343C25.8704 50.5602 25.6468 49.5968 25.2796 48.7053H55.1452C54.7779 49.5968 54.557 50.5602 54.4905 51.5662H54.4931ZM16.7819 56.8862C14.1605 56.8862 12.0261 54.7652 12.0261 52.1597C12.0261 49.5542 14.1605 47.4332 16.7819 47.4332C17.732 47.4332 18.6156 47.7153 19.3581 48.1916C19.4486 48.2662 19.5444 48.3354 19.6455 48.3939C20.7925 49.2562 21.5377 50.6214 21.5377 52.157C21.5377 54.7625 19.4033 56.8836 16.7819 56.8836V56.8862ZM7.6322 51.5662H4.42262V48.7053H8.28423C7.91696 49.5968 7.69607 50.5602 7.62954 51.5662H7.6322ZM25.3142 24.2395V32.1118H7.0334L7.02541 24.181L25.3115 24.2369L25.3142 24.2395ZM7.62687 11.8057C7.1984 11.8057 6.83646 11.4491 6.83646 11.0286V5.20295C6.83646 4.78246 7.1984 4.42584 7.62687 4.42584H27.7067C32.2124 4.42584 37.6335 9.0486 38.5038 10.531V11.0313C38.5038 11.4518 38.1418 11.8084 37.7134 11.8084H7.62687V11.8057ZM13.4259 19.7791V16.2316H33.245V19.8403L13.4259 19.7791ZM43.5923 24.2981L50.4985 32.1145H29.7373V24.2555L43.5923 24.2981ZM77.8358 44.2874V42.2462C77.8518 41.8097 77.8624 39.8936 77.0241 38.201C75.6189 35.3666 72.4146 34.7465 72.0181 34.68L56.5796 32.3141L46.251 20.6254C45.8331 20.1517 45.2317 19.8803 44.6009 19.8776L37.6708 19.8563V16.2342H37.7187C40.5956 16.2342 42.9323 13.9002 42.9323 11.0313V10.2249C42.9323 6.93283 34.4053 0.00268782 27.7094 0.00268782H7.62687C4.74996 2.64768e-05 2.41064 2.33403 2.41064 5.20295V11.0286C2.41064 13.8976 4.74996 16.2316 7.62421 16.2316H8.99747V19.7658L4.8165 19.7525H4.80851C4.22302 19.7525 3.66147 19.9841 3.2463 20.3992C2.82847 20.8144 2.59694 21.3786 2.59694 21.9668L2.61556 44.2821H2.20572C0.984161 44.2821 -0.00585938 45.2721 -0.00585938 46.4937V53.7778C-0.00585938 54.9994 0.984161 55.9894 2.20572 55.9894H8.45189C9.91031 59.1244 13.088 61.3094 16.7766 61.3094C20.4652 61.3094 23.6455 59.1244 25.1039 55.9894H55.3128C56.7712 59.1244 59.9516 61.3094 63.6402 61.3094C67.3288 61.3094 70.5091 59.1244 71.9649 55.9894H77.7826C79.0041 55.9894 79.9941 54.9994 79.9941 53.7778V46.4937C79.9941 45.2881 79.0281 44.3114 77.8305 44.2874H77.8358Z" fill="white"/>
</g>
<defs>
<clipPath id="clip0_834_521">
<rect width="80" height="61.3094" fill="white"/>
</clipPath>
</defs>
</svg>
