<svg width="54" height="54" viewBox="0 0 54 54" fill="none" xmlns="http://www.w3.org/2000/svg">
<mask id="mask0_531_502" style="mask-type:alpha" maskUnits="userSpaceOnUse" x="0" y="0" width="54" height="54">
<rect width="54" height="54" fill="#D9D9D9"/>
</mask>
<g mask="url(#mask0_531_502)">
<path d="M20.25 31.5V22.5H23.625V31.5H20.25ZM25.3125 31.5V24.75H28.6875V31.5H25.3125ZM30.375 31.5V27H33.75V31.5H30.375ZM20.25 49.5L17.2125 39.2625C15.4125 37.8375 13.9688 36.0562 12.8813 33.9187C11.7938 31.7812 11.25 29.475 11.25 27C11.25 24.525 11.7938 22.2188 12.8813 20.0813C13.9688 17.9438 15.4125 16.1625 17.2125 14.7375L20.25 4.5H33.75L36.7875 14.7375C38.5875 16.1625 40.0313 17.9438 41.1188 20.0813C42.2063 22.2188 42.75 24.525 42.75 27C42.75 29.475 42.2063 31.7812 41.1188 33.9187C40.0313 36.0562 38.5875 37.8375 36.7875 39.2625L33.75 49.5H20.25ZM27 38.25C30.1125 38.25 32.7656 37.1531 34.9594 34.9594C37.1531 32.7656 38.25 30.1125 38.25 27C38.25 23.8875 37.1531 21.2344 34.9594 19.0406C32.7656 16.8469 30.1125 15.75 27 15.75C23.8875 15.75 21.2344 16.8469 19.0406 19.0406C16.8469 21.2344 15.75 23.8875 15.75 27C15.75 30.1125 16.8469 32.7656 19.0406 34.9594C21.2344 37.1531 23.8875 38.25 27 38.25Z" fill="#3D3D3B"/>
</g>
</svg>
