<svg width="80" height="54" viewBox="0 0 80 54" fill="none" xmlns="http://www.w3.org/2000/svg">
<g clip-path="url(#clip0_834_519)">
<path d="M65.9846 41.8495H46.4987C46.4249 40.6881 46.1715 39.5781 45.7576 38.5419H65.9846V41.8495ZM41.2502 33.2101C41.2214 33.2101 41.1925 33.2165 41.1636 33.2197C39.5468 32.2701 37.67 31.7151 35.6586 31.7151C33.6471 31.7151 31.7832 32.2669 30.1695 33.2101H14.1933C14.0425 33.1844 13.8885 33.162 13.7281 33.162C10.6644 33.162 8.16848 30.6404 8.16848 27.5382V24.9814H63.1518V27.5382C63.1518 30.6404 60.6592 33.162 57.5922 33.162C57.4318 33.162 57.2778 33.1812 57.1271 33.2101H41.2502ZM35.6586 48.0282C32.6045 48.0282 30.1182 45.5644 30.1182 42.5392C30.1182 39.514 32.6045 37.0502 35.6586 37.0502C38.7127 37.0502 41.2021 39.514 41.2021 42.5392C41.2021 45.5644 38.7159 48.0282 35.6586 48.0282ZM24.8184 41.8495H5.33253V38.5419H25.5595C25.1457 39.5749 24.8922 40.6881 24.8184 41.8495ZM8.16848 10.9556C8.16848 7.8566 10.6612 5.33184 13.7281 5.33184H32.9958V19.6495H16.872V16.9483C16.872 15.4758 15.6786 14.2824 14.2061 14.2824C12.7336 14.2824 11.5402 15.4758 11.5402 16.9483V19.6495H8.1749V10.9556H8.16848ZM38.3277 5.33184H57.5954C60.6592 5.33184 63.155 7.85339 63.155 10.9556V19.6495H38.3309V5.33184H38.3277ZM77.3348 33.8068C75.8623 33.8068 74.6689 35.0002 74.6689 36.4727V38.8018H71.3196V35.876C71.3196 34.4035 70.1262 33.2101 68.6537 33.2101H66.8957C67.8966 31.5547 68.4869 29.617 68.4869 27.5382V10.9556C68.4869 4.91479 63.601 0 57.5954 0H13.7249C7.71935 0 2.83344 4.91479 2.83344 10.9556V27.5382C2.83344 29.6138 3.42052 31.5515 4.42465 33.2101H2.66982C1.19731 33.2101 0.00390625 34.4035 0.00390625 35.876V44.5154C0.00390625 45.9879 1.19731 47.1813 2.66982 47.1813H25.8546C27.6063 50.8289 31.3373 53.3601 35.6618 53.3601C39.9863 53.3601 43.7173 50.8289 45.4689 47.1813H68.6537C70.1262 47.1813 71.3196 45.9879 71.3196 44.5154V44.1336H77.338C78.8105 44.1336 80.0039 42.9402 80.0039 41.4677V36.4727C80.0039 35.0002 78.8105 33.8068 77.338 33.8068H77.3348Z" fill="white"/>
</g>
<defs>
<clipPath id="clip0_834_519">
<rect width="80" height="53.3601" fill="white"/>
</clipPath>
</defs>
</svg>
