<svg width="80" height="80" viewBox="0 0 80 80" fill="none" xmlns="http://www.w3.org/2000/svg">
<g clip-path="url(#clip0_834_507)">
<path d="M60.6179 68.1825C62.3612 68.1825 63.7781 66.7692 63.7781 65.0224C63.7781 63.2757 62.3647 61.8623 60.6179 61.8623C58.8712 61.8623 57.4578 63.2757 57.4578 65.0224C57.4578 66.7692 58.8712 68.1825 60.6179 68.1825ZM74.2273 73.4784L54.9957 68.9951V57.8826L74.2273 62.3623V73.4749V73.4784ZM49.2206 69.1202L30.5133 73.4784V62.3658L49.2206 58.0076V69.1202ZM24.7417 73.4784L5.77397 69.0577V57.9451L24.7417 62.3658V73.4784ZM77.7695 24.0969L61.2117 20.2388C59.6595 19.8742 58.1072 20.843 57.746 22.3953C57.3849 23.9476 58.3503 25.4999 59.9025 25.8611L60.9513 26.1041C60.9652 26.1979 60.9756 26.2917 60.993 26.4028C61.2117 27.8301 62.4411 28.8545 63.844 28.8545C63.9899 28.8545 64.1357 28.8441 64.2851 28.8198C65.2018 28.6809 65.9415 28.1148 66.3617 27.3613L74.2273 29.1948V41.113C73.1369 40.7415 71.8833 41.0401 71.095 41.9708C70.0636 43.1862 70.2129 45.0094 71.4249 46.0408C71.6575 46.2387 71.8972 46.4367 72.1437 46.6277C72.6716 47.0444 73.3036 47.2493 73.9322 47.2493C74.0329 47.2493 74.1301 47.2284 74.2273 47.218V56.4345L54.9957 51.9513V44.5927C54.9957 42.9987 53.7038 41.7069 52.1099 41.7069C50.5159 41.7069 49.2241 42.9987 49.2241 44.5927V52.0763L30.5168 56.4345V47.8917C30.5168 46.2978 29.2249 45.0059 27.631 45.0059C26.037 45.0059 24.7452 46.2978 24.7452 47.8917V56.4345L5.77744 52.0138V24.7741L19.2202 27.9065C20.7759 28.2676 22.3247 27.3022 22.6859 25.7499C23.0471 24.1977 22.0817 22.6454 20.5294 22.2842L3.54451 18.3254C2.68676 18.1239 1.78387 18.3254 1.09628 18.8775C0.405217 19.4262 0.00585938 20.2562 0.00585938 21.1382V71.3427C0.00585938 72.6831 0.929591 73.8499 2.23532 74.1555L26.9781 79.9202C27.4087 80.0209 27.8567 80.0209 28.2873 79.9202L52.3738 74.3083L76.4603 79.9202C76.6756 79.9688 76.8978 79.9966 77.1166 79.9966C77.7625 79.9966 78.3945 79.7813 78.912 79.3715C79.603 78.8228 80.0024 77.9929 80.0024 77.1108V26.9098C80.0024 25.5694 79.0787 24.4025 77.7695 24.0969ZM14.5529 47.5861L20.6683 48.9856V43.9641L14.5529 42.5646V47.5861ZM40.0007 5.77164C45.2965 5.77164 49.6061 10.109 49.6061 15.4396C49.6061 16.7835 49.3317 18.0892 48.7935 19.3185C48.783 19.3463 48.7692 19.3741 48.7587 19.4019C48.7518 19.4192 48.7448 19.4366 48.7379 19.454L39.9902 38.0432L31.253 19.4713C31.2287 19.3949 31.1974 19.3185 31.1662 19.2421C30.6522 18.0371 30.3883 16.7557 30.3883 15.4361C30.3883 10.1055 34.6979 5.76817 39.9937 5.76817L40.0007 5.77164ZM25.9572 21.7737L36.3543 43.8738C37.0142 45.2768 38.4414 46.1866 39.9937 46.1866C41.546 46.1866 42.9698 45.2803 43.6331 43.8738L54.0303 21.7737C54.0685 21.6939 54.1067 21.6036 54.1379 21.5098C54.9609 19.5825 55.3777 17.5405 55.3777 15.4396C55.3777 6.92457 48.4775 -0.00341797 39.9972 -0.00341797C31.5169 -0.00341797 24.6167 6.92457 24.6167 15.4396C24.6167 17.485 25.0126 19.4748 25.7905 21.3535C25.8356 21.4924 25.8877 21.6313 25.9537 21.7703L25.9572 21.7737ZM40.0007 19.0789C42.3343 19.0789 44.2338 17.1794 44.2338 14.8423C44.2338 12.5052 42.3343 10.6091 40.0007 10.6091C37.667 10.6091 35.764 12.5086 35.764 14.8423C35.764 17.1759 37.6635 19.0789 40.0007 19.0789ZM67.2125 39.0051C67.664 39.0051 68.1224 38.8975 68.553 38.6718C69.9629 37.9286 70.5081 36.1853 69.7649 34.7719C69.6469 34.5462 69.5323 34.324 69.4246 34.1017C68.7197 32.671 66.9903 32.0876 65.5595 32.789C64.1288 33.494 63.5419 35.2234 64.2469 36.6541C64.3788 36.9181 64.5143 37.1855 64.6532 37.4563C65.1706 38.4391 66.1742 39.0017 67.2125 39.0017V39.0051Z" fill="white"/>
</g>
<defs>
<clipPath id="clip0_834_507">
<rect width="80" height="80.0035" fill="white"/>
</clipPath>
</defs>
</svg>
