<svg width="80" height="74" viewBox="0 0 80 74" fill="none" xmlns="http://www.w3.org/2000/svg">
<g clip-path="url(#clip0_834_513)">
<path d="M40.3237 30.2179C39.4359 31.1026 39.4455 32.5417 40.343 33.4327C41.2404 34.3269 42.6859 34.3365 43.5737 33.4519C44.4615 32.5673 44.4519 31.1282 43.5545 30.234C42.6571 29.3397 41.2115 29.3301 40.3237 30.2147V30.2179ZM23.3045 14.5994C22.4327 14.5994 21.7276 15.3045 21.7276 16.1699C21.7276 17.0353 22.4327 17.7404 23.3045 17.7404C24.1763 17.7404 24.8814 17.0385 24.8814 16.1699C24.8814 15.3013 24.1763 14.5994 23.3045 14.5994ZM20.9615 10.9615C22.6763 10.9615 24.0673 9.57692 24.0673 7.86859C24.0673 6.16026 22.6763 4.77564 20.9615 4.77564C19.2468 4.77564 17.8558 6.16026 17.8558 7.86859C17.8558 9.57692 19.2468 10.9615 20.9615 10.9615ZM64.6891 57.8494C60.5641 57.9487 49.359 56.5256 42.016 49.2115C41.359 48.5577 40.7532 47.875 40.1891 47.1731C41.5705 47.0256 42.9103 46.7019 44.1827 46.2212C44.5128 47.4199 45.1442 48.5192 46.0513 49.4199C46.5705 49.9359 47.25 50.1955 47.9327 50.1955C48.6154 50.1955 49.3013 49.9327 49.8205 49.4103C50.859 48.3686 50.8558 46.6795 49.8141 45.641C49.4487 45.2756 49.2468 44.7917 49.2468 44.2756C49.2468 43.7596 49.4359 43.3205 49.7756 42.984C50.4968 42.266 51.734 42.2821 52.4776 43.0224C53.5192 44.0609 55.2083 44.0577 56.2468 43.0128C57.2853 41.9712 57.2821 40.2821 56.2404 39.2436C55.3301 38.3397 54.2404 37.7244 53.0865 37.4006C53.5673 36.1667 53.891 34.8654 54.0513 33.5224C54.7308 34.0705 55.3942 34.6538 56.0288 35.2885C63.359 42.5897 64.7917 53.734 64.6987 57.8462L64.6891 57.8494ZM36.8301 41.8365C36.8301 41.8365 36.8205 41.8365 36.8141 41.8365C33.7692 35.6346 33.1699 29.2436 33.2756 26.5801C35.9679 26.4712 42.4712 27.0737 48.7532 30.1731C49.1506 33.5128 48.0897 36.7147 45.8429 38.9551C43.5449 41.2436 40.2628 42.2949 36.8301 41.8365ZM79.218 59.4712C76.6699 56.9327 73.1154 56.0417 69.984 56.8269C69.8718 53.391 68.8301 40.5321 59.7821 31.5192C49.7949 21.5737 32.0064 19.6154 29.1571 22.4551C28.5288 23.0801 27.9455 24.0929 27.9455 27.2308C27.9455 28.8141 28.2308 43 38.2596 52.9872C43.984 58.6891 51.3045 61.1763 56.4359 62.2564C56.6859 62.3077 60.3109 63.0609 63.6603 63.1474C63.4808 63.8654 63.3782 64.609 63.3782 65.375C63.3782 67.9391 64.4519 70.4776 66.3269 72.3462C66.8462 72.8622 67.5256 73.1218 68.2083 73.1218C68.891 73.1218 69.5769 72.859 70.0962 72.3365C71.1346 71.2917 71.1314 69.6058 70.0897 68.5673C69.2115 67.6923 68.7083 66.5289 68.7083 65.3718C68.7083 64.4006 69.0641 63.5128 69.7115 62.8686C71.1923 61.3942 73.7724 61.5609 75.4647 63.2468C76.5064 64.2853 78.1955 64.2821 79.234 63.2404C80.2724 62.1987 80.2692 60.5128 79.2276 59.4744L79.218 59.4712ZM7.41026 35.1378C6.26282 35.1378 5.32692 34.2019 5.32692 33.0545C5.32692 31.9071 6.25962 30.9712 7.41026 30.9712C8.5609 30.9712 9.49359 31.9038 9.49359 33.0545C9.49359 34.2051 8.5609 35.1378 7.41026 35.1378ZM14.2564 54.125L18.5224 54.5705V59.5609C18.5224 61.6538 16.8077 63.359 14.6987 63.359H13.8878C11.7788 63.359 10.0641 61.6571 10.0641 59.5609V39.9679C12.8429 38.8974 14.8205 36.2051 14.8205 33.0545C14.8205 29.9038 12.8397 27.2115 10.0641 26.141V2.66346C10.0641 1.19231 8.8718 0 7.40064 0C5.92949 0 4.73718 1.19231 4.73718 2.66346V26.1506C1.97115 27.2276 0 29.9135 0 33.0545C0 36.1955 1.96795 38.8814 4.73718 39.9583V59.5609C4.73718 64.593 8.84295 68.6859 13.891 68.6859H14.7019C19.75 68.6859 23.8558 64.593 23.8558 59.5609V37.5256C23.8558 37.5256 22.4167 51.4423 14.2596 54.125H14.2564Z" fill="white"/>
</g>
<defs>
<clipPath id="clip0_834_513">
<rect width="80" height="73.1186" fill="white"/>
</clipPath>
</defs>
</svg>
