<svg width="80" height="78" viewBox="0 0 80 78" fill="none" xmlns="http://www.w3.org/2000/svg">
<g clip-path="url(#clip0_834_501)">
<path d="M63.2174 71.9314H29.8379C24.1272 71.9314 19.4774 67.2848 19.4774 61.5709C19.4774 55.8571 24.124 51.2136 29.8379 51.2136C30.3888 51.2136 30.9492 51.2577 31.5064 51.349C33.7069 51.7047 35.6965 52.7436 37.2611 54.3491C38.2717 55.3849 39.9276 55.4037 40.9602 54.3963C41.9959 53.389 42.0148 51.7299 41.0074 50.6973C39.8394 49.4979 38.5109 48.5094 37.0628 47.7538C39.6474 44.0107 43.954 41.6842 48.5818 41.6842C51.7425 41.6842 54.7899 42.7766 57.236 44.7033C54.7741 45.6414 52.539 47.1557 50.7382 49.1516C49.7718 50.2251 49.8568 51.881 50.9303 52.8475C52.0038 53.8139 53.6597 53.7289 54.6262 52.6554C56.9274 50.1023 60.2959 48.6951 63.7116 48.8462C69.9103 49.1075 74.7647 54.1791 74.7647 60.3841C74.7647 66.589 69.5829 71.9345 63.2142 71.9345L63.2174 71.9314ZM63.9383 43.614C63.8029 43.6077 63.6676 43.6077 63.5322 43.6046C59.893 39.1091 54.3743 36.4489 48.5818 36.4489C41.6811 36.4489 35.303 40.2046 31.903 46.1325C31.2167 46.0412 30.521 45.9846 29.8347 45.9846C21.2372 45.9846 14.2421 52.9797 14.2421 61.5772C14.2421 70.1747 21.2372 77.1698 29.8347 77.1698H63.2142C72.4697 77.1698 80 69.6395 80 60.3841C80 51.1286 72.9419 43.9981 63.9383 43.6172V43.614ZM20.0031 42.2257C20.7618 42.2257 21.5142 41.8983 22.0337 41.2624C22.9466 40.1417 22.7798 38.4952 21.6591 37.5791C18.9958 35.4069 17.4689 32.1927 17.4689 28.7581C17.4689 22.4839 22.572 17.3808 28.8462 17.3808C35.1204 17.3808 40.2235 22.4839 40.2235 28.7581C40.2235 30.0456 41.1522 31.1097 42.3768 31.3269C42.6255 31.4056 42.8837 31.4592 43.1576 31.4592H55.0732C56.5182 31.4592 57.6893 30.2881 57.6893 28.8431C57.6893 27.3981 56.5182 26.227 55.0732 26.227H45.2637C44.8575 23.5826 43.8218 21.1459 42.3233 19.0682L49.2397 12.1517C50.2629 11.1286 50.2629 9.47269 49.2397 8.4527C48.2166 7.42956 46.5607 7.42956 45.5407 8.4527L38.6369 15.3565C36.5591 13.8328 34.1162 12.7814 31.4623 12.3595V2.61609C31.4623 1.1711 30.2912 0 28.8462 0C27.4012 0 26.2301 1.1711 26.2301 2.61609V12.3564C23.5794 12.7782 21.1365 13.8297 19.0556 15.3534L12.1517 8.44955C11.1286 7.42956 9.47269 7.42641 8.4527 8.44955C7.42956 9.47269 7.42956 11.1286 8.4527 12.1486L15.3723 19.0682C13.8706 21.1491 12.838 23.5857 12.4319 26.227H2.61609C1.1711 26.227 0 27.3981 0 28.8431C0 30.2881 1.1711 31.4592 2.61609 31.4592H12.454C12.8758 34.0375 13.8989 36.4584 15.4321 38.555L8.44955 45.5375C7.42641 46.5607 7.42641 48.2166 8.44955 49.2366C8.95955 49.7466 9.6301 50.0047 10.3006 50.0047C10.9712 50.0047 11.6386 49.7497 12.1517 49.2397L19.2791 42.1124C19.5183 42.1816 19.7607 42.2226 20.0031 42.2226V42.2257Z" fill="white"/>
</g>
<defs>
<clipPath id="clip0_834_501">
<rect width="80" height="77.1667" fill="white"/>
</clipPath>
</defs>
</svg>
