<svg width="54" height="54" viewBox="0 0 54 54" fill="none" xmlns="http://www.w3.org/2000/svg">
<mask id="mask0_531_496" style="mask-type:alpha" maskUnits="userSpaceOnUse" x="0" y="0" width="54" height="54">
<rect width="54" height="54" fill="#D9D9D9"/>
</mask>
<g mask="url(#mask0_531_496)">
<path d="M24.75 43.8188L13.5 37.35C12.7875 36.9375 12.2344 36.3844 11.8406 35.6906C11.4469 34.9969 11.25 34.2562 11.25 33.4688V20.5312C11.25 19.7438 11.4469 19.0031 11.8406 18.3094C12.2344 17.6156 12.7875 17.0625 13.5 16.65L24.75 10.1813C25.4625 9.76875 26.2125 9.5625 27 9.5625C27.7875 9.5625 28.5375 9.76875 29.25 10.1813L40.5 16.65C41.2125 17.0625 41.7656 17.6156 42.1594 18.3094C42.5531 19.0031 42.75 19.7438 42.75 20.5312V33.4688C42.75 34.2562 42.5531 34.9969 42.1594 35.6906C41.7656 36.3844 41.2125 36.9375 40.5 37.35L29.25 43.8188C28.5375 44.2313 27.7875 44.4375 27 44.4375C26.2125 44.4375 25.4625 44.2313 24.75 43.8188ZM4.5 15.75V9C4.5 7.7625 4.94063 6.70313 5.82188 5.82188C6.70313 4.94063 7.7625 4.5 9 4.5H15.75V9H9V15.75H4.5ZM15.75 49.5H9C7.7625 49.5 6.70313 49.0594 5.82188 48.1781C4.94063 47.2969 4.5 46.2375 4.5 45V38.25H9V45H15.75V49.5ZM38.25 49.5V45H45V38.25H49.5V45C49.5 46.2375 49.0594 47.2969 48.1781 48.1781C47.2969 49.0594 46.2375 49.5 45 49.5H38.25ZM45 15.75V9H38.25V4.5H45C46.2375 4.5 47.2969 4.94063 48.1781 5.82188C49.0594 6.70313 49.5 7.7625 49.5 9V15.75H45ZM18.1125 19.1813L15.75 20.5312V23.0625L24.75 28.2937V38.6438L27 39.9375L29.25 38.6438V28.2937L38.25 23.0625V20.5312L35.8875 19.1813L27 24.4125L18.1125 19.1813Z" fill="#3D3D3B"/>
</g>
</svg>
